<?xml version="1.0" encoding="UTF-8" standalone="no"?>
<!-- Created with Inkscape (http://www.inkscape.org/) -->

<svg
   xmlns:dc="http://purl.org/dc/elements/1.1/"
   xmlns:cc="http://creativecommons.org/ns#"
   xmlns:rdf="http://www.w3.org/1999/02/22-rdf-syntax-ns#"
   xmlns:svg="http://www.w3.org/2000/svg"
   xmlns="http://www.w3.org/2000/svg"
   xmlns:sodipodi="http://sodipodi.sourceforge.net/DTD/sodipodi-0.dtd"
   xmlns:inkscape="http://www.inkscape.org/namespaces/inkscape"
   width="1052.3622"
   height="744.09448"
   id="svg2"
   version="1.1"
   inkscape:version="0.47+devel r9322"
   sodipodi:docname="Neues Dokument 1">
  <defs
     id="defs4" />
  <sodipodi:namedview
     id="base"
     pagecolor="#ffffff"
     bordercolor="#666666"
     borderopacity="1.0"
     inkscape:pageopacity="0.0"
     inkscape:pageshadow="2"
     inkscape:zoom="1.4"
     inkscape:cx="420.42269"
     inkscape:cy="544.47433"
     inkscape:document-units="px"
     inkscape:current-layer="layer1"
     showgrid="false"
     inkscape:window-width="1916"
     inkscape:window-height="1156"
     inkscape:window-x="4"
     inkscape:window-y="0"
     inkscape:window-maximized="0" />
  <metadata
     id="metadata7">
    <rdf:RDF>
      <cc:Work
         rdf:about="">
        <dc:format>image/svg+xml</dc:format>
        <dc:type
           rdf:resource="http://purl.org/dc/dcmitype/StillImage" />
        <dc:title></dc:title>
      </cc:Work>
    </rdf:RDF>
  </metadata>
  <g
     inkscape:label="Ebene 1"
     inkscape:groupmode="layer"
     id="layer1"
     transform="translate(0,-308.2677)">
    <g
       id="g3724"
       transform="translate(5,-5.4218439)">
      <path
         sodipodi:nodetypes="cc"
         inkscape:connector-curvature="0"
         id="path2940"
         d="m 313.55964,535.58826 37.88072,-37.88072"
         style="fill:none;stroke:#000000;stroke-width:4;stroke-linecap:square;stroke-linejoin:miter;stroke-miterlimit:4;stroke-opacity:1;stroke-dasharray:none" />
      <path
         style="fill:none;stroke:#000000;stroke-width:4;stroke-linecap:square;stroke-linejoin:miter;stroke-miterlimit:4;stroke-opacity:1;stroke-dasharray:none"
         d="m 313.55964,497.70754 37.88072,37.88072"
         id="path2942"
         inkscape:connector-curvature="0"
         sodipodi:nodetypes="cc" />
    </g>
    <g
       id="g3720"
       transform="translate(5,-9.4624489)">
      <path
         style="fill:none;stroke:#000000;stroke-width:4;stroke-linecap:square;stroke-linejoin:miter;stroke-miterlimit:4;stroke-opacity:1;stroke-dasharray:none"
         d="m 648.18934,506.54637 -53.57142,0"
         id="path3716"
         inkscape:connector-curvature="0"
         sodipodi:nodetypes="cc" />
      <path
         sodipodi:nodetypes="cc"
         inkscape:connector-curvature="0"
         id="path3718"
         d="m 648.18934,534.83064 -53.57142,0"
         style="fill:none;stroke:#000000;stroke-width:4;stroke-linecap:square;stroke-linejoin:miter;stroke-miterlimit:4;stroke-opacity:1;stroke-dasharray:none" />
    </g>
    <path
       style="fill:none;stroke:#000000;stroke-width:0.81361866px;stroke-linecap:butt;stroke-linejoin:miter;stroke-opacity:1"
       d="m 151.25244,445.00445 c -30.70534,30.54513 -34.51892,71.50348 -29.58764,101.09113 4.93128,29.58764 14.79382,69.03783 27.122,55.06589 12.32819,-13.97195 18.8782,-8.78904 31.23141,-4.93128 15.63133,4.88148 27.12199,10.68442 45.20333,11.50631 18.08135,0.82188 50.13463,-45.20334 52.60026,-65.75032 2.46564,-20.54698 -13.15007,-30.40952 -27.94388,-34.51891 -14.79383,-4.10941 -13.49106,22.07026 -33.69705,4.10939 -14.79381,-13.15007 -10.68442,-18.08134 0,-30.40953 9.19803,-10.6131 17.25947,-13.15006 26.30013,-24.65636 9.04067,-11.50632 4.1094,-37.80644 -17.25946,-41.09396 -21.36885,-3.28752 -48.76254,4.51261 -73.9691,29.58764 z"
       id="path2927"
       inkscape:connector-curvature="0"
       sodipodi:nodetypes="ssssssssssss" />
    <flowRoot
       xml:space="preserve"
       id="flowRoot3818"
       style="font-size:32px;font-style:normal;font-variant:normal;font-weight:bold;font-stretch:condensed;fill:#000000;fill-opacity:1;stroke:none;font-family:Arial Narrow;-inkscape-font-specification:Arial Narrow Bold Condensed"
       transform="translate(48.811423,294.33913)"><flowRegion
         id="flowRegion3820"><rect
           id="rect3822"
           width="113.57144"
           height="79.285713"
           x="94.285713"
           y="321.95163"
           style="font-size:32px;font-style:normal;font-variant:normal;font-weight:bold;font-stretch:condensed;font-family:Arial Narrow;-inkscape-font-specification:Arial Narrow Bold Condensed" /></flowRegion><flowPara
         id="flowPara3824"
         style="text-align:center;text-anchor:middle">Volumen</flowPara><flowPara
         id="flowPara3826"
         style="text-align:center;text-anchor:middle">V</flowPara></flowRoot>    <g
       id="g2935"
       transform="translate(-57.142865,327.81747)">
      <path
         sodipodi:nodetypes="ccsssssc"
         inkscape:connector-curvature="0"
         id="path2929"
         d="m 604.19442,111.84218 c -33.03204,-25.469284 -45.66468,64.40792 -36.15883,67.74261 9.03971,0 16.5728,-25.27709 18.07942,-12.13301 1.50662,13.1441 -24.10589,43.4766 -20.33934,59.65394 3.76655,16.17734 7.53309,26.28818 18.07941,31.3436 10.54632,5.05543 21.09265,-9.09975 25.6125,-17.18842 4.51985,-8.08867 8.5088,-36.40832 10.01542,-69.77408 1.50661,-33.36577 5.54722,-45.50343 -15.28858,-59.64464 z"
         style="fill:none;stroke:#000000;stroke-width:0.86395895px;stroke-linecap:butt;stroke-linejoin:miter;stroke-opacity:1" />
      <path
         sodipodi:nodetypes="cc"
         inkscape:connector-curvature="0"
         id="path2931"
         d="m 438.4062,184.64115 150.63003,-76.8889"
         style="fill:none;stroke:#000000;stroke-width:1px;stroke-linecap:butt;stroke-linejoin:miter;stroke-opacity:1" />
      <path
         sodipodi:nodetypes="cc"
         inkscape:connector-curvature="0"
         id="path2933"
         d="M 583.98021,258.49958 438.4062,184.64115"
         style="fill:none;stroke:#000000;stroke-width:1px;stroke-linecap:butt;stroke-linejoin:miter;stroke-opacity:1" />
    </g>
    <flowRoot
       transform="translate(299.52296,294.33913)"
       style="font-size:32px;font-style:normal;font-variant:normal;font-weight:bold;font-stretch:condensed;fill:#000000;fill-opacity:1;stroke:none;font-family:Arial Narrow;-inkscape-font-specification:Arial Narrow Bold Condensed"
       id="flowRoot3828"
       xml:space="preserve"><flowRegion
         id="flowRegion3830"><rect
           style="font-size:32px;font-style:normal;font-variant:normal;font-weight:bold;font-stretch:condensed;font-family:Arial Narrow;-inkscape-font-specification:Arial Narrow Bold Condensed"
           y="321.95163"
           x="94.285713"
           height="81.428574"
           width="157.14287"
           id="rect3832" /></flowRegion><flowPara
         id="flowPara3838"
         style="text-align:center;text-anchor:middle">Raumwinkel</flowPara><flowPara
         id="flowPara3840"
         style="text-align:center;text-anchor:middle">Ω</flowPara></flowRoot>    <flowRoot
       xml:space="preserve"
       id="flowRoot3842"
       style="fill:black;stroke:none;stroke-opacity:1;stroke-width:1px;stroke-linejoin:miter;stroke-linecap:butt;fill-opacity:1;font-family:Bitstream Vera Sans;font-style:normal;font-weight:normal;font-size:40px"><flowRegion
         id="flowRegion3844"><rect
           id="rect3846"
           width="25.714285"
           height="43.57143"
           x="451.42856"
           y="365.52304" /></flowRegion><flowPara
         id="flowPara3848"></flowPara></flowRoot>    <flowRoot
       xml:space="preserve"
       id="flowRoot3850"
       style="fill:black;stroke:none;stroke-opacity:1;stroke-width:1px;stroke-linejoin:miter;stroke-linecap:butt;fill-opacity:1;font-family:Bitstream Vera Sans;font-style:normal;font-weight:normal;font-size:40px"><flowRegion
         id="flowRegion3852"><rect
           id="rect3854"
           width="20"
           height="61.42857"
           x="435.71429"
           y="363.38019" /></flowRegion><flowPara
         id="flowPara3856"></flowPara></flowRoot>    <g
       id="g3890"
       transform="translate(38.543554,1.6377822)">
      <path
         style="fill:none;stroke:#000000;stroke-width:0.81361866px;stroke-linecap:butt;stroke-linejoin:miter;stroke-opacity:1"
         d="m 714.91756,443.36667 c -30.70534,30.54513 -34.51892,71.50348 -29.58764,101.09113 4.93128,29.58764 14.79382,69.03783 27.122,55.06589 12.32819,-13.97195 18.8782,-8.78904 31.23141,-4.93128 15.63133,4.88148 27.12199,10.68442 45.20333,11.50631 18.08135,0.82188 50.13463,-45.20334 52.60026,-65.75032 2.46564,-20.54698 -13.15007,-30.40952 -27.94388,-34.51891 -14.79383,-4.10941 -13.49106,22.07026 -33.69705,4.10939 -14.79381,-13.15007 -10.68442,-18.08134 0,-30.40953 9.19803,-10.6131 17.25947,-13.15006 26.30013,-24.65636 9.04067,-11.50632 4.1094,-37.80644 -17.25946,-41.09396 -21.36885,-3.28752 -48.76254,4.51261 -73.9691,29.58764 z"
         id="path3728"
         inkscape:connector-curvature="0"
         sodipodi:nodetypes="ssssssssssss" />
      <g
         style="stroke-width:2.74678969;stroke-miterlimit:4;stroke-dasharray:none"
         id="g3730"
         transform="matrix(0.14562454,0,0,0.14562454,638.69575,541.64567)">
        <path
           sodipodi:nodetypes="ccsssssc"
           inkscape:connector-curvature="0"
           id="path3732"
           d="m 604.19442,111.84218 c -33.03204,-25.469284 -45.66468,64.40792 -36.15883,67.74261 9.03971,0 16.5728,-25.27709 18.07942,-12.13301 1.50662,13.1441 -24.10589,43.4766 -20.33934,59.65394 3.76655,16.17734 7.53309,26.28818 18.07941,31.3436 10.54632,5.05543 21.09265,-9.09975 25.6125,-17.18842 4.51985,-8.08867 8.5088,-36.40832 10.01542,-69.77408 1.50661,-33.36577 5.54722,-45.50343 -15.28858,-59.64464 z"
           style="fill:none;stroke:#000000;stroke-width:2.74678969;stroke-linecap:butt;stroke-linejoin:miter;stroke-miterlimit:4;stroke-opacity:1;stroke-dasharray:none" />
        <path
           sodipodi:nodetypes="cc"
           inkscape:connector-curvature="0"
           id="path3734"
           d="m 438.4062,184.64115 150.63003,-76.8889"
           style="fill:none;stroke:#000000;stroke-width:2.74678969;stroke-linecap:butt;stroke-linejoin:miter;stroke-miterlimit:4;stroke-opacity:1;stroke-dasharray:none" />
        <path
           sodipodi:nodetypes="cc"
           inkscape:connector-curvature="0"
           id="path3736"
           d="M 583.98021,258.49958 438.4062,184.64115"
           style="fill:none;stroke:#000000;stroke-width:2.74678969;stroke-linecap:butt;stroke-linejoin:miter;stroke-miterlimit:4;stroke-opacity:1;stroke-dasharray:none" />
      </g>
      <g
         transform="matrix(0.14562454,0,0,0.14562454,635.66529,505.28018)"
         id="g3738"
         style="stroke-width:2.74678969;stroke-miterlimit:4;stroke-dasharray:none">
        <path
           style="fill:none;stroke:#000000;stroke-width:2.74678969;stroke-linecap:butt;stroke-linejoin:miter;stroke-miterlimit:4;stroke-opacity:1;stroke-dasharray:none"
           d="m 604.19442,111.84218 c -33.03204,-25.469284 -45.66468,64.40792 -36.15883,67.74261 9.03971,0 16.5728,-25.27709 18.07942,-12.13301 1.50662,13.1441 -24.10589,43.4766 -20.33934,59.65394 3.76655,16.17734 7.53309,26.28818 18.07941,31.3436 10.54632,5.05543 21.09265,-9.09975 25.6125,-17.18842 4.51985,-8.08867 8.5088,-36.40832 10.01542,-69.77408 1.50661,-33.36577 5.54722,-45.50343 -15.28858,-59.64464 z"
           id="path3740"
           inkscape:connector-curvature="0"
           sodipodi:nodetypes="ccsssssc" />
        <path
           style="fill:none;stroke:#000000;stroke-width:2.74678969;stroke-linecap:butt;stroke-linejoin:miter;stroke-miterlimit:4;stroke-opacity:1;stroke-dasharray:none"
           d="m 438.4062,184.64115 150.63003,-76.8889"
           id="path3742"
           inkscape:connector-curvature="0"
           sodipodi:nodetypes="cc" />
        <path
           style="fill:none;stroke:#000000;stroke-width:2.74678969;stroke-linecap:butt;stroke-linejoin:miter;stroke-miterlimit:4;stroke-opacity:1;stroke-dasharray:none"
           d="M 583.98021,258.49958 438.4062,184.64115"
           id="path3744"
           inkscape:connector-curvature="0"
           sodipodi:nodetypes="cc" />
      </g>
      <g
         style="stroke-width:2.74678969;stroke-miterlimit:4;stroke-dasharray:none"
         id="g3746"
         transform="matrix(0.14562454,0,0,0.14562454,672.03078,527.50354)">
        <path
           sodipodi:nodetypes="ccsssssc"
           inkscape:connector-curvature="0"
           id="path3748"
           d="m 604.19442,111.84218 c -33.03204,-25.469284 -45.66468,64.40792 -36.15883,67.74261 9.03971,0 16.5728,-25.27709 18.07942,-12.13301 1.50662,13.1441 -24.10589,43.4766 -20.33934,59.65394 3.76655,16.17734 7.53309,26.28818 18.07941,31.3436 10.54632,5.05543 21.09265,-9.09975 25.6125,-17.18842 4.51985,-8.08867 8.5088,-36.40832 10.01542,-69.77408 1.50661,-33.36577 5.54722,-45.50343 -15.28858,-59.64464 z"
           style="fill:none;stroke:#000000;stroke-width:2.74678969;stroke-linecap:butt;stroke-linejoin:miter;stroke-miterlimit:4;stroke-opacity:1;stroke-dasharray:none" />
        <path
           sodipodi:nodetypes="cc"
           inkscape:connector-curvature="0"
           id="path3750"
           d="m 438.4062,184.64115 150.63003,-76.8889"
           style="fill:none;stroke:#000000;stroke-width:2.74678969;stroke-linecap:butt;stroke-linejoin:miter;stroke-miterlimit:4;stroke-opacity:1;stroke-dasharray:none" />
        <path
           sodipodi:nodetypes="cc"
           inkscape:connector-curvature="0"
           id="path3752"
           d="M 583.98021,258.49958 438.4062,184.64115"
           style="fill:none;stroke:#000000;stroke-width:2.74678969;stroke-linecap:butt;stroke-linejoin:miter;stroke-miterlimit:4;stroke-opacity:1;stroke-dasharray:none" />
      </g>
      <g
         transform="matrix(0.14562454,0,0,0.14562454,709.9115,553.76751)"
         id="g3754"
         style="stroke-width:2.74678969;stroke-miterlimit:4;stroke-dasharray:none">
        <path
           style="fill:none;stroke:#000000;stroke-width:2.74678969;stroke-linecap:butt;stroke-linejoin:miter;stroke-miterlimit:4;stroke-opacity:1;stroke-dasharray:none"
           d="m 604.19442,111.84218 c -33.03204,-25.469284 -45.66468,64.40792 -36.15883,67.74261 9.03971,0 16.5728,-25.27709 18.07942,-12.13301 1.50662,13.1441 -24.10589,43.4766 -20.33934,59.65394 3.76655,16.17734 7.53309,26.28818 18.07941,31.3436 10.54632,5.05543 21.09265,-9.09975 25.6125,-17.18842 4.51985,-8.08867 8.5088,-36.40832 10.01542,-69.77408 1.50661,-33.36577 5.54722,-45.50343 -15.28858,-59.64464 z"
           id="path3756"
           inkscape:connector-curvature="0"
           sodipodi:nodetypes="ccsssssc" />
        <path
           style="fill:none;stroke:#000000;stroke-width:2.74678969;stroke-linecap:butt;stroke-linejoin:miter;stroke-miterlimit:4;stroke-opacity:1;stroke-dasharray:none"
           d="m 438.4062,184.64115 150.63003,-76.8889"
           id="path3758"
           inkscape:connector-curvature="0"
           sodipodi:nodetypes="cc" />
        <path
           style="fill:none;stroke:#000000;stroke-width:2.74678969;stroke-linecap:butt;stroke-linejoin:miter;stroke-miterlimit:4;stroke-opacity:1;stroke-dasharray:none"
           d="M 583.98021,258.49958 438.4062,184.64115"
           id="path3760"
           inkscape:connector-curvature="0"
           sodipodi:nodetypes="cc" />
      </g>
      <g
         style="stroke-width:2.74678969;stroke-miterlimit:4;stroke-dasharray:none"
         id="g3762"
         transform="matrix(0.14562454,0,0,0.14562454,720.01303,518.41217)">
        <path
           sodipodi:nodetypes="ccsssssc"
           inkscape:connector-curvature="0"
           id="path3764"
           d="m 604.19442,111.84218 c -33.03204,-25.469284 -45.66468,64.40792 -36.15883,67.74261 9.03971,0 16.5728,-25.27709 18.07942,-12.13301 1.50662,13.1441 -24.10589,43.4766 -20.33934,59.65394 3.76655,16.17734 7.53309,26.28818 18.07941,31.3436 10.54632,5.05543 21.09265,-9.09975 25.6125,-17.18842 4.51985,-8.08867 8.5088,-36.40832 10.01542,-69.77408 1.50661,-33.36577 5.54722,-45.50343 -15.28858,-59.64464 z"
           style="fill:none;stroke:#000000;stroke-width:2.74678969;stroke-linecap:butt;stroke-linejoin:miter;stroke-miterlimit:4;stroke-opacity:1;stroke-dasharray:none" />
        <path
           sodipodi:nodetypes="cc"
           inkscape:connector-curvature="0"
           id="path3766"
           d="m 438.4062,184.64115 150.63003,-76.8889"
           style="fill:none;stroke:#000000;stroke-width:2.74678969;stroke-linecap:butt;stroke-linejoin:miter;stroke-miterlimit:4;stroke-opacity:1;stroke-dasharray:none" />
        <path
           sodipodi:nodetypes="cc"
           inkscape:connector-curvature="0"
           id="path3768"
           d="M 583.98021,258.49958 438.4062,184.64115"
           style="fill:none;stroke:#000000;stroke-width:2.74678969;stroke-linecap:butt;stroke-linejoin:miter;stroke-miterlimit:4;stroke-opacity:1;stroke-dasharray:none" />
      </g>
      <g
         transform="matrix(0.14562454,0,0,0.14562454,647.28205,467.90454)"
         id="g3770"
         style="stroke-width:2.74678969;stroke-miterlimit:4;stroke-dasharray:none">
        <path
           style="fill:none;stroke:#000000;stroke-width:2.74678969;stroke-linecap:butt;stroke-linejoin:miter;stroke-miterlimit:4;stroke-opacity:1;stroke-dasharray:none"
           d="m 604.19442,111.84218 c -33.03204,-25.469284 -45.66468,64.40792 -36.15883,67.74261 9.03971,0 16.5728,-25.27709 18.07942,-12.13301 1.50662,13.1441 -24.10589,43.4766 -20.33934,59.65394 3.76655,16.17734 7.53309,26.28818 18.07941,31.3436 10.54632,5.05543 21.09265,-9.09975 25.6125,-17.18842 4.51985,-8.08867 8.5088,-36.40832 10.01542,-69.77408 1.50661,-33.36577 5.54722,-45.50343 -15.28858,-59.64464 z"
           id="path3772"
           inkscape:connector-curvature="0"
           sodipodi:nodetypes="ccsssssc" />
        <path
           style="fill:none;stroke:#000000;stroke-width:2.74678969;stroke-linecap:butt;stroke-linejoin:miter;stroke-miterlimit:4;stroke-opacity:1;stroke-dasharray:none"
           d="m 438.4062,184.64115 150.63003,-76.8889"
           id="path3774"
           inkscape:connector-curvature="0"
           sodipodi:nodetypes="cc" />
        <path
           style="fill:none;stroke:#000000;stroke-width:2.74678969;stroke-linecap:butt;stroke-linejoin:miter;stroke-miterlimit:4;stroke-opacity:1;stroke-dasharray:none"
           d="M 583.98021,258.49958 438.4062,184.64115"
           id="path3776"
           inkscape:connector-curvature="0"
           sodipodi:nodetypes="cc" />
      </g>
      <g
         style="stroke-width:2.74678969;stroke-miterlimit:4;stroke-dasharray:none"
         id="g3778"
         transform="matrix(0.14562454,0,0,0.14562454,668.49525,428.00351)">
        <path
           sodipodi:nodetypes="ccsssssc"
           inkscape:connector-curvature="0"
           id="path3780"
           d="m 604.19442,111.84218 c -33.03204,-25.469284 -45.66468,64.40792 -36.15883,67.74261 9.03971,0 16.5728,-25.27709 18.07942,-12.13301 1.50662,13.1441 -24.10589,43.4766 -20.33934,59.65394 3.76655,16.17734 7.53309,26.28818 18.07941,31.3436 10.54632,5.05543 21.09265,-9.09975 25.6125,-17.18842 4.51985,-8.08867 8.5088,-36.40832 10.01542,-69.77408 1.50661,-33.36577 5.54722,-45.50343 -15.28858,-59.64464 z"
           style="fill:none;stroke:#000000;stroke-width:2.74678969;stroke-linecap:butt;stroke-linejoin:miter;stroke-miterlimit:4;stroke-opacity:1;stroke-dasharray:none" />
        <path
           sodipodi:nodetypes="cc"
           inkscape:connector-curvature="0"
           id="path3782"
           d="m 438.4062,184.64115 150.63003,-76.8889"
           style="fill:none;stroke:#000000;stroke-width:2.74678969;stroke-linecap:butt;stroke-linejoin:miter;stroke-miterlimit:4;stroke-opacity:1;stroke-dasharray:none" />
        <path
           sodipodi:nodetypes="cc"
           inkscape:connector-curvature="0"
           id="path3784"
           d="M 583.98021,258.49958 438.4062,184.64115"
           style="fill:none;stroke:#000000;stroke-width:2.74678969;stroke-linecap:butt;stroke-linejoin:miter;stroke-miterlimit:4;stroke-opacity:1;stroke-dasharray:none" />
      </g>
      <g
         transform="matrix(0.14562454,0,0,0.14562454,683.64754,486.08728)"
         id="g3786"
         style="stroke-width:2.74678969;stroke-miterlimit:4;stroke-dasharray:none">
        <path
           style="fill:none;stroke:#000000;stroke-width:2.74678969;stroke-linecap:butt;stroke-linejoin:miter;stroke-miterlimit:4;stroke-opacity:1;stroke-dasharray:none"
           d="m 604.19442,111.84218 c -33.03204,-25.469284 -45.66468,64.40792 -36.15883,67.74261 9.03971,0 16.5728,-25.27709 18.07942,-12.13301 1.50662,13.1441 -24.10589,43.4766 -20.33934,59.65394 3.76655,16.17734 7.53309,26.28818 18.07941,31.3436 10.54632,5.05543 21.09265,-9.09975 25.6125,-17.18842 4.51985,-8.08867 8.5088,-36.40832 10.01542,-69.77408 1.50661,-33.36577 5.54722,-45.50343 -15.28858,-59.64464 z"
           id="path3788"
           inkscape:connector-curvature="0"
           sodipodi:nodetypes="ccsssssc" />
        <path
           style="fill:none;stroke:#000000;stroke-width:2.74678969;stroke-linecap:butt;stroke-linejoin:miter;stroke-miterlimit:4;stroke-opacity:1;stroke-dasharray:none"
           d="m 438.4062,184.64115 150.63003,-76.8889"
           id="path3790"
           inkscape:connector-curvature="0"
           sodipodi:nodetypes="cc" />
        <path
           style="fill:none;stroke:#000000;stroke-width:2.74678969;stroke-linecap:butt;stroke-linejoin:miter;stroke-miterlimit:4;stroke-opacity:1;stroke-dasharray:none"
           d="M 583.98021,258.49958 438.4062,184.64115"
           id="path3792"
           inkscape:connector-curvature="0"
           sodipodi:nodetypes="cc" />
      </g>
      <g
         style="stroke-width:2.74678969;stroke-miterlimit:4;stroke-dasharray:none"
         id="g3794"
         transform="matrix(0.14562454,0,0,0.14562454,735.16532,409.82076)">
        <path
           sodipodi:nodetypes="ccsssssc"
           inkscape:connector-curvature="0"
           id="path3796"
           d="m 604.19442,111.84218 c -33.03204,-25.469284 -45.66468,64.40792 -36.15883,67.74261 9.03971,0 16.5728,-25.27709 18.07942,-12.13301 1.50662,13.1441 -24.10589,43.4766 -20.33934,59.65394 3.76655,16.17734 7.53309,26.28818 18.07941,31.3436 10.54632,5.05543 21.09265,-9.09975 25.6125,-17.18842 4.51985,-8.08867 8.5088,-36.40832 10.01542,-69.77408 1.50661,-33.36577 5.54722,-45.50343 -15.28858,-59.64464 z"
           style="fill:none;stroke:#000000;stroke-width:2.74678969;stroke-linecap:butt;stroke-linejoin:miter;stroke-miterlimit:4;stroke-opacity:1;stroke-dasharray:none" />
        <path
           sodipodi:nodetypes="cc"
           inkscape:connector-curvature="0"
           id="path3798"
           d="m 438.4062,184.64115 150.63003,-76.8889"
           style="fill:none;stroke:#000000;stroke-width:2.74678969;stroke-linecap:butt;stroke-linejoin:miter;stroke-miterlimit:4;stroke-opacity:1;stroke-dasharray:none" />
        <path
           sodipodi:nodetypes="cc"
           inkscape:connector-curvature="0"
           id="path3800"
           d="M 583.98021,258.49958 438.4062,184.64115"
           style="fill:none;stroke:#000000;stroke-width:2.74678969;stroke-linecap:butt;stroke-linejoin:miter;stroke-miterlimit:4;stroke-opacity:1;stroke-dasharray:none" />
      </g>
      <g
         transform="matrix(0.14562454,0,0,0.14562454,710.92166,445.68118)"
         id="g3802"
         style="stroke-width:2.74678969;stroke-miterlimit:4;stroke-dasharray:none">
        <path
           style="fill:none;stroke:#000000;stroke-width:2.74678969;stroke-linecap:butt;stroke-linejoin:miter;stroke-miterlimit:4;stroke-opacity:1;stroke-dasharray:none"
           d="m 604.19442,111.84218 c -33.03204,-25.469284 -45.66468,64.40792 -36.15883,67.74261 9.03971,0 16.5728,-25.27709 18.07942,-12.13301 1.50662,13.1441 -24.10589,43.4766 -20.33934,59.65394 3.76655,16.17734 7.53309,26.28818 18.07941,31.3436 10.54632,5.05543 21.09265,-9.09975 25.6125,-17.18842 4.51985,-8.08867 8.5088,-36.40832 10.01542,-69.77408 1.50661,-33.36577 5.54722,-45.50343 -15.28858,-59.64464 z"
           id="path3804"
           inkscape:connector-curvature="0"
           sodipodi:nodetypes="ccsssssc" />
        <path
           style="fill:none;stroke:#000000;stroke-width:2.74678969;stroke-linecap:butt;stroke-linejoin:miter;stroke-miterlimit:4;stroke-opacity:1;stroke-dasharray:none"
           d="m 438.4062,184.64115 150.63003,-76.8889"
           id="path3806"
           inkscape:connector-curvature="0"
           sodipodi:nodetypes="cc" />
        <path
           style="fill:none;stroke:#000000;stroke-width:2.74678969;stroke-linecap:butt;stroke-linejoin:miter;stroke-miterlimit:4;stroke-opacity:1;stroke-dasharray:none"
           d="M 583.98021,258.49958 438.4062,184.64115"
           id="path3808"
           inkscape:connector-curvature="0"
           sodipodi:nodetypes="cc" />
      </g>
      <g
         style="stroke-width:2.74678969;stroke-miterlimit:4;stroke-dasharray:none"
         id="g3810"
         transform="matrix(0.14562454,0,0,0.14562454,761.42929,512.35125)">
        <path
           sodipodi:nodetypes="ccsssssc"
           inkscape:connector-curvature="0"
           id="path3812"
           d="m 604.19442,111.84218 c -33.03204,-25.469284 -45.66468,64.40792 -36.15883,67.74261 9.03971,0 16.5728,-25.27709 18.07942,-12.13301 1.50662,13.1441 -24.10589,43.4766 -20.33934,59.65394 3.76655,16.17734 7.53309,26.28818 18.07941,31.3436 10.54632,5.05543 21.09265,-9.09975 25.6125,-17.18842 4.51985,-8.08867 8.5088,-36.40832 10.01542,-69.77408 1.50661,-33.36577 5.54722,-45.50343 -15.28858,-59.64464 z"
           style="fill:none;stroke:#000000;stroke-width:2.74678969;stroke-linecap:butt;stroke-linejoin:miter;stroke-miterlimit:4;stroke-opacity:1;stroke-dasharray:none" />
        <path
           sodipodi:nodetypes="cc"
           inkscape:connector-curvature="0"
           id="path3814"
           d="m 438.4062,184.64115 150.63003,-76.8889"
           style="fill:none;stroke:#000000;stroke-width:2.74678969;stroke-linecap:butt;stroke-linejoin:miter;stroke-miterlimit:4;stroke-opacity:1;stroke-dasharray:none" />
        <path
           sodipodi:nodetypes="cc"
           inkscape:connector-curvature="0"
           id="path3816"
           d="M 583.98021,258.49958 438.4062,184.64115"
           style="fill:none;stroke:#000000;stroke-width:2.74678969;stroke-linecap:butt;stroke-linejoin:miter;stroke-miterlimit:4;stroke-opacity:1;stroke-dasharray:none" />
      </g>
    </g>
    <g
       id="g3880"
       transform="translate(-35,0.35714145)">
      <flowRoot
         transform="translate(603.57143,293.98199)"
         style="font-size:32px;font-style:normal;font-variant:normal;font-weight:bold;font-stretch:condensed;fill:#000000;fill-opacity:1;stroke:none;font-family:Arial Narrow;-inkscape-font-specification:Arial Narrow Bold Condensed"
         id="flowRoot3858"
         xml:space="preserve"><flowRegion
           id="flowRegion3860"><rect
             style="font-size:32px;font-style:normal;font-variant:normal;font-weight:bold;font-stretch:condensed;font-family:Arial Narrow;-inkscape-font-specification:Arial Narrow Bold Condensed"
             y="321.95163"
             x="94.285713"
             height="84.285698"
             width="286.42859"
             id="rect3862" /></flowRegion><flowPara
           sodipodi:insensitive="true"
           id="flowPara3864"
           style="text-align:center;text-anchor:middle">Phasenraumvolumen</flowPara><flowPara
           id="flowPara3866"
           style="text-align:center;text-anchor:middle">V   Ω</flowPara></flowRoot>      <g
         style="stroke-width:9.97555351;stroke-miterlimit:4;stroke-dasharray:none"
         id="g3874"
         transform="matrix(0.30073518,0,0,0.30073518,738.57698,523.41657)">
        <path
           sodipodi:nodetypes="cc"
           inkscape:connector-curvature="0"
           id="path3876"
           d="m 313.55964,535.58826 37.88072,-37.88072"
           style="fill:none;stroke:#000000;stroke-width:9.97555351;stroke-linecap:square;stroke-linejoin:miter;stroke-miterlimit:4;stroke-opacity:1;stroke-dasharray:none" />
        <path
           style="fill:none;stroke:#000000;stroke-width:9.97555351;stroke-linecap:square;stroke-linejoin:miter;stroke-miterlimit:4;stroke-opacity:1;stroke-dasharray:none"
           d="m 313.55964,497.70754 37.88072,37.88072"
           id="path3878"
           inkscape:connector-curvature="0"
           sodipodi:nodetypes="cc" />
      </g>
    </g>
  </g>
</svg>
